<?xml version="1.0" encoding="UTF-8"?>
<svg xmlns="http://www.w3.org/2000/svg" xmlns:xlink="http://www.w3.org/1999/xlink" width="594.7pt" height="105.27pt" viewBox="0 0 594.7 105.27" version="1.1">
<defs>
<clipPath id="clip1">
  <path d="M 509 6 L 594.699219 6 L 594.699219 101 L 509 101 Z M 509 6 "/>
</clipPath>
<clipPath id="clip2">
  <path d="M 37 43 L 81 43 L 81 105.269531 L 37 105.269531 Z M 37 43 "/>
</clipPath>
</defs>
<g id="surface1">
<path style=" stroke:none;fill-rule:nonzero;fill:rgb(0%,0%,0%);fill-opacity:1;" d="M 335.726563 6.171875 L 345.765625 6.171875 L 400.71875 85.957031 L 400.984375 85.957031 L 400.984375 6.171875 L 409.964844 6.171875 L 409.964844 100.492188 L 399.925781 100.492188 L 344.972656 20.707031 L 344.710938 20.707031 L 344.710938 100.492188 L 335.726563 100.492188 "/>
<path style=" stroke:none;fill-rule:nonzero;fill:rgb(0%,0%,0%);fill-opacity:1;" d="M 266.394531 72.113281 L 288.328125 16.015625 L 310.085938 72.113281 Z M 321.085938 100.492188 L 330.726563 100.492188 L 293.742188 6.175781 L 283.703125 6.175781 L 245.660156 100.492188 L 255.304688 100.492188 L 263.402344 79.777344 L 313.054688 79.777344 "/>
<path style=" stroke:none;fill-rule:nonzero;fill:rgb(0%,0%,0%);fill-opacity:1;" d="M 199.949219 93.847656 C 176.65625 93.847656 160.078125 75.554688 160.078125 52.992188 C 160.078125 30.425781 176.457031 12.136719 199.949219 12.136719 C 223.234375 12.136719 240.011719 30.425781 240.011719 52.992188 C 240.011719 75.554688 223.628906 93.847656 199.949219 93.847656 M 199.925781 3.953125 C 171.738281 3.953125 152.074219 25.910156 152.074219 52.992188 C 152.074219 80.074219 171.972656 102.027344 199.925781 102.027344 C 228.351563 102.027344 248.015625 80.074219 248.015625 52.992188 C 248.015625 25.910156 227.878906 3.953125 199.925781 3.953125 "/>
<path style=" stroke:none;fill-rule:nonzero;fill:rgb(0%,0%,0%);fill-opacity:1;" d="M 452.339844 100.5 L 422.273438 100.5 L 422.273438 6.171875 L 452.339844 6.171875 C 480.742188 6.835938 499.660156 28.707031 499.660156 54.894531 C 499.660156 79.347656 480.550781 100.5 452.339844 100.5 M 431.261719 14.3125 L 431.261719 92.328125 L 451.839844 92.328125 C 477.429688 92.328125 491.199219 72.929688 491.199219 54.371094 C 491.199219 34.59375 478.636719 14.3125 451.839844 14.3125 L 431.261719 14.3125 "/>
<g clip-path="url(#clip1)" clip-rule="nonzero">
<path style=" stroke:none;fill-rule:nonzero;fill:rgb(0%,0%,0%);fill-opacity:1;" d="M 518.289063 72.113281 L 518.289063 19.863281 L 518.90625 19.863281 L 561.0625 72.113281 Z M 583.953125 100.492188 L 594.699219 100.492188 L 518.503906 6.175781 L 509.304688 6.175781 L 509.304688 100.492188 L 518.289063 100.492188 L 518.289063 79.777344 L 567.242188 79.777344 "/>
</g>
<g clip-path="url(#clip2)" clip-rule="nonzero">
<path style=" stroke:none;fill-rule:nonzero;fill:rgb(72.198486%,82.699585%,19.999695%);fill-opacity:1;" d="M 37.414063 103.023438 C 42.234375 104.484375 47.34375 105.269531 52.636719 105.269531 C 63.019531 105.269531 72.6875 102.253906 80.84375 97.066406 L 37.414063 43.296875 "/>
</g>
<path style=" stroke:none;fill-rule:nonzero;fill:rgb(72.198486%,82.699585%,19.999695%);fill-opacity:1;" d="M 37.414063 8.378906 L 96.574219 81.617188 C 102.070313 73.304688 105.277344 63.339844 105.277344 52.632813 C 105.277344 23.5625 81.710938 -0.00390625 52.636719 -0.00390625 C 42.15625 -0.00390625 32.402344 3.070313 24.199219 8.351563 L 37.414063 8.351563 "/>
<path style=" stroke:none;fill-rule:nonzero;fill:rgb(72.198486%,82.699585%,19.999695%);fill-opacity:1;" d="M 0 52.632813 C 0 66.960938 5.734375 79.945313 15.023438 89.4375 L 15.023438 15.828125 C 5.734375 25.320313 0 38.304688 0 52.632813 "/>
</g>
</svg>
